<svg width="161" height="40" viewBox="0 0 161 40" fill="none" xmlns="http://www.w3.org/2000/svg">
<path d="M9.02222 0.351562H19.341C22.4542 0.351562 24.4464 1.36454 25.3108 3.37698C26.1752 5.39617 26.1752 8.3473 25.3108 12.2371C24.3924 16.1269 23.1093 19.0578 21.475 21.0162C19.834 22.9814 17.4839 23.9606 14.4247 23.9606H11.2373L7.6986 39.4388H0L9.02222 0.351562ZM13.3442 16.9103C14.2762 16.9103 14.9988 16.7415 15.5052 16.3971C16.0252 16.0594 16.4304 15.5597 16.7208 14.9114C17.0044 14.2496 17.3016 13.3109 17.6122 12.1021C17.9701 10.4678 18.0512 9.28599 17.8553 8.5634C17.6528 7.82731 17.018 7.45588 15.9375 7.45588H15.073L12.885 16.9103H13.3442Z" fill="white"/>
<path d="M31.6289 39.79C28.4009 39.79 26.2264 38.8851 25.0918 37.0617C23.9573 35.2451 23.7952 32.5506 24.6056 28.9849L31.2237 0.351562H38.8142L32.2502 28.6608C31.9801 29.9034 31.8788 30.8758 31.953 31.5782C32.0408 32.267 32.473 32.6046 33.2496 32.6046C34.0398 32.6046 34.6408 32.2737 35.0595 31.6052C35.4714 30.9231 35.8158 29.9439 36.086 28.6608L42.623 0.351562H50.2136L43.6225 28.9849C42.8121 32.5506 41.4075 35.2451 39.4085 37.0617C37.4231 38.8851 34.8299 39.79 31.6289 39.79Z" fill="white"/>
<path d="M54.3269 0.351562H66.3205C68.2249 0.351562 69.6025 0.783765 70.4534 1.64817C71.3178 2.51257 71.75 3.72814 71.75 5.29487C71.75 6.86161 71.4664 8.86054 70.9127 11.2917C70.4062 13.5067 69.7241 15.2355 68.8597 16.4781C67.9953 17.7207 66.7865 18.5851 65.24 19.0713C66.3543 19.3077 67.0769 19.8952 67.401 20.8271C67.7252 21.7658 67.6982 23.0422 67.32 24.6629L63.8353 39.4388H56.1908L59.6754 24.1497C59.959 23.0692 59.9185 22.3804 59.5403 22.0697C59.1757 21.7658 58.4396 21.6105 57.3253 21.6105L53.2194 39.4388H45.3047L54.3269 0.351562ZM60.8369 14.8303C61.9175 14.8303 62.7278 13.6553 63.2681 11.2917C63.518 10.2517 63.653 9.47508 63.6733 8.96859C63.6868 8.4486 63.599 8.09068 63.4031 7.88808C63.2006 7.69224 62.8696 7.59095 62.4037 7.59095H60.5938L58.9461 14.8303H60.8369Z" fill="white"/>
<path d="M68.1382 39.4388L77.1604 0.351562H92.8007L91.0719 7.9151H83.3733L81.6175 15.5056H88.9919L87.2901 22.8801H79.9157L77.8357 31.8483H86.0205L84.2917 39.4388H68.1382Z" fill="white"/>
<path d="M97.0527 39.7896C94.1893 39.7896 92.1094 38.8982 90.8128 37.1153C89.5162 35.3325 89.2325 32.8744 89.9484 29.7409L94.0813 11.7235C94.9997 7.85392 96.4584 4.93656 98.4573 2.97139C100.456 0.992714 103.11 0 106.426 0C109.303 0 111.437 0.796873 112.828 2.37711C114.233 3.94384 114.584 6.2129 113.882 9.18429L112.342 15.9104H104.562L105.913 10.1567C106.163 9.02222 106.196 8.25236 106.021 7.83366C105.859 7.40146 105.44 7.18536 104.778 7.18536C104.076 7.18536 103.536 7.42847 103.158 7.9147C102.779 8.40093 102.482 9.11676 102.266 10.0487L97.728 29.6599C97.5119 30.6863 97.4916 31.4359 97.674 31.9019C97.8495 32.3746 98.248 32.6042 98.8625 32.6042C100.065 32.6042 100.902 31.625 101.375 29.6599L102.995 22.6096H110.883L109.181 29.984C107.669 36.5211 103.623 39.7896 97.0527 39.7896Z" fill="#FF1616"/>
<path d="M109.702 39.4388L122.479 0.351562H135.715L130.42 39.4388H123.019L123.937 33.1179H119.21L117.292 39.4388H109.702ZM121.236 26.878H124.802L127.611 6.99667H127.26L121.236 26.878Z" fill="#FF1616"/>
<mask id="mask0_457_431" style="mask-type:luminance" maskUnits="userSpaceOnUse" x="133" y="0" width="28" height="40">
<path d="M133.713 0.237305H160.827V39.9999H133.713V0.237305Z" fill="white"/>
</mask>
<g mask="url(#mask0_457_431)">
<path d="M142.948 0.351562H154.942C156.846 0.351562 158.224 0.783765 159.075 1.64817C159.939 2.51257 160.372 3.72814 160.372 5.29487C160.372 6.86161 160.088 8.86054 159.534 11.2917C159.028 13.5067 158.346 15.2355 157.481 16.4781C156.617 17.7207 155.408 18.5851 153.862 19.0713C154.976 19.3077 155.698 19.8952 156.023 20.8271C156.347 21.7658 156.32 23.0422 155.942 24.6629L152.457 39.4388H144.812L148.297 24.1497C148.581 23.0692 148.54 22.3804 148.162 22.0697C147.797 21.7658 147.061 21.6105 145.947 21.6105L141.841 39.4388H133.926L142.948 0.351562ZM149.459 14.8303C150.539 14.8303 151.349 13.6553 151.89 11.2917C152.14 10.2517 152.275 9.47508 152.295 8.96859C152.308 8.4486 152.221 8.09068 152.025 7.88808C151.822 7.69224 151.491 7.59095 151.025 7.59095H149.215L147.568 14.8303H149.459Z" fill="#FF1616"/>
</g>
</svg>
